<?xml version="1.0" encoding="utf-8"?>
<!-- Generator: Adobe Illustrator 18.1.1, SVG Export Plug-In . SVG Version: 6.00 Build 0)  -->
<svg version="1.1" id="图层_1" xmlns="http://www.w3.org/2000/svg" xmlns:xlink="http://www.w3.org/1999/xlink" x="0px" y="0px"
	 viewBox="-166 391.9 262 58" enable-background="new -166 391.9 262 58" xml:space="preserve">
<path fill="#FFFFFF" d="M-1.2,421.1l22.5,28c0.2,0.2,0.4,0.4,0.7,0.5c0.3,0.1,0.5,0.2,0.8,0.2h12.6c0.3,0,0.6,0,0.9-0.2
	c0.3-0.1,0.5-0.4,0.7-0.6c0.2-0.3,0.2-0.6,0.2-0.9s-0.1-0.6-0.3-0.9l-21-26.1c-0.5-0.6-0.8-1.4-0.8-2.3c0-0.8,0.4-1.6,0.9-2.2
	l20.4-22.1c0.2-0.2,0.3-0.6,0.4-0.9c0-0.3,0-0.7-0.2-0.9c-0.2-0.3-0.4-0.5-0.7-0.7c-0.3-0.2-0.6-0.2-0.9-0.2H22.8
	c-0.3,0-0.5,0-0.8,0.2c-0.2,0.1-0.5,0.3-0.6,0.5L-1,416.7c-0.6,0.6-0.9,1.4-0.9,2.2C-1.9,419.7-1.7,420.5-1.2,421.1z M-93.6,391.9
	h-8c-1.4,0-2.6,1.2-2.6,2.6v52.8c0,1.4,1.2,2.6,2.6,2.6h8c1.4,0,2.6-1.2,2.6-2.6v-52.8C-91.1,393.1-92.2,391.9-93.6,391.9z
	 M95.9,423v-5.1c0-1.5-1.2-2.6-2.6-2.6h-33c-1.5,0-2.6,1.2-2.6,2.6v5.1c0,1.5,1.2,2.6,2.6,2.6h33C94.7,425.6,95.9,424.4,95.9,423z
	 M95.9,442.1v5.1c0,1.5-1.2,2.6-2.6,2.6h-33c-1.5,0-2.6-1.2-2.6-2.6v-5.1c0-1.5,1.2-2.6,2.6-2.6h33
	C94.7,439.5,95.9,440.6,95.9,442.1z M95.9,399.6v-5.1c0-1.5-1.2-2.6-2.6-2.6h-33c-1.5,0-2.6,1.2-2.6,2.6v5.1c0,1.5,1.2,2.6,2.6,2.6
	h33C94.7,402.3,95.9,401.1,95.9,399.6z M-41.3,391.9c8.1,0,18.9,5.7,19.1,25.7v0.1v30c0,0.6-0.2,1.1-0.6,1.5c-0.4,0.4-1,0.6-1.5,0.6
	h-8.7c-0.6,0-1.1-0.2-1.5-0.6c-0.4-0.4-0.6-1-0.6-1.5v-27.3c0-15.3-7.5-15.3-10.9-15.3h-7.7c-0.6,0-1.1,0.2-1.5,0.6
	c-0.4,0.4-0.6,1-0.6,1.5v40.5c0,0.6-0.2,1.1-0.6,1.5c-0.4,0.4-1,0.6-1.5,0.6H-67c-0.6,0-1.1-0.2-1.5-0.6c-0.4-0.4-0.6-1-0.6-1.5
	v-48.2c0-1,0.2-2,0.6-2.9c0.4-0.9,0.9-1.7,1.6-2.4c0.7-0.7,1.5-1.3,2.4-1.6c0.9-0.4,1.9-0.6,2.9-0.6H-41.3z M-153.8,392.8
	c-0.6-0.6-1.4-0.9-2.2-0.9h-6.9c-0.8,0-1.6,0.3-2.2,0.9c-0.6,0.6-0.9,1.4-0.9,2.2v29.6c0,14.6,7.1,25.3,25.3,25.3h12.2
	c0.8,0,1.6-0.3,2.2-0.9c0.6-0.6,0.9-1.4,0.9-2.2v-7.8c0-0.8-0.3-1.6-0.9-2.2c-0.6-0.6-1.4-0.9-2.2-0.9H-140
	c-10.7,0-12.9-4.4-12.9-11.5V395C-152.9,394.2-153.2,393.4-153.8,392.8z"/>
</svg>
