<?xml version="1.0" encoding="utf-8"?>
<svg version="1.1" id="1" xmlns="http://www.w3.org/2000/svg" xmlns:xlink="http://www.w3.org/1999/xlink" x="0px" y="0px"
	 viewBox="0 0 461.4 155" enable-background="new 0 0 461.4 155" xml:space="preserve">
<g>
	<path fill="#FBFBFC" d="M82.3,136c0,3.1,0,6.2,0,9.4c0,2.7-0.5,5.1-4,5.2c-3.5,0.1-4.5-2-4.5-5c0-6.2-0.1-12.5,0.1-18.7
		c0.1-2.4-0.5-3.3-3.1-3.2c-9.2,0.1-18.5,0.1-27.7-0.8c-2.6-0.2-4.1,0.7-5.3,3c-2.9,5.4-6,10.7-9,15.9c-2,3.4-4.5,4.1-7.8,2.2
		c-2.5-1.5-2.6-3.7-0.4-7c2.7-4,5.4-8.1,8.2-12.1c1.8-2.5,0.9-3.1-1.7-3.2c-7.6-0.4-15.2-1-22.5-3.3c-5.1-1.6-5.7-3.3-2.7-7.9
		c3.6-5.5,8.8-9.5,14.2-13.2c2.1-1.5,2.5-2.7,1.8-5.2c-4.5-16.1-5.7-32.4-0.2-48.3C25.9,20,42.7,5.3,68,1.4
		c17.7-2.7,34.1,0.9,48.5,11.7c15.9,12,23.3,28.7,24.8,48.4c0.8,10.8-1.2,21.1-4,31.4c-0.6,2.3-0.3,3.4,1.7,4.8
		c5,3.5,10,7.1,13.8,12c4.2,5.5,3.8,7-2.8,8.8c-7.1,2-14.4,2.8-21.8,3.5c-4,0.4-4,0.4-1.8,3.6c2.6,3.8,5.3,7.6,7.8,11.4
		c1.5,2.2,3,4.6,0.2,6.9c-2.3,1.8-4.9,0.8-6.9-2.4c-3.2-5.2-6.6-10.3-9.7-15.6c-1-1.7-2.1-2.5-4.1-2.5c-9.6,0.1-19.2,0.2-28.9,0.1
		c-2.1,0-2.8,0.6-2.7,2.7C82.4,129.5,82.3,132.8,82.3,136z M20.9,66.3c0.1,8.1,1.7,15.9,3.3,23.7c0.6,2.7,1.6,3.4,4.2,2.8
		c9.3-2.3,18.8-2.6,28.3-2.6c23.9,0,48-1.3,71.7,2.8c1.2,0.2,2,0.2,2.5-1.4c4.9-16.8,6.2-33.6-0.7-50.2
		C116.3,7.8,78.7-1.8,51.3,12.8C30.2,24.1,21.9,43.3,20.9,66.3z M119.6,114c4,0.1,6.9-2.7,7.1-6.6c0.1-4-3-7.2-6.9-7.3
		c-3.9,0-6.9,2.8-7.1,6.7C112.5,111,115.4,114,119.6,114z M70.8,106.7c0,4.1,3.1,7.2,7,7.1c3.8-0.1,6.8-3.2,6.8-7
		c0-3.9-3.3-7.2-7.1-7.2C73.7,99.7,70.8,102.8,70.8,106.7z M42.5,106.4c0-3.7-2.9-6.7-6.6-6.7c-3.9,0-7,3-7,6.8
		c0,3.8,3.1,6.9,6.9,6.9C39.6,113.3,42.5,110.3,42.5,106.4z"/>
	<path fill="#FBFBFC" d="M229.7,78.7c-0.5,11.5-3,21.6-13.1,27.7c-10.2,6.1-21,6.1-31.4,0.8c-10.5-5.3-13.7-15.2-14.5-26.2
		c-0.3-4.4,0.2-8.7,1.4-13c3.7-13.4,14.7-21.5,28.3-20.6c16.7,1.1,26.4,9.2,28.6,24.1C229.4,74.2,229.5,76.8,229.7,78.7z
		 M217.2,80.3c0.1-5.2-0.4-9.6-2.4-13.6c-3-6-7.8-9.2-14.6-9.2c-6.8,0-11.8,3-14.5,9.2c-3.6,8.3-3.5,16.8,0.1,25
		c2.7,6.1,7.9,9.3,14.6,9.2c6.6-0.1,11.6-3.4,14.5-9.5C216.6,87.6,217.2,83.6,217.2,80.3z"/>
	<path fill="#FBFBFC" d="M286.7,70.6c3-2.1,5.6-4.6,9.2-5.5c10.1-2.4,18.6,2.1,21.9,11.9c2.7,7.9,2.4,15.8-1.1,23.3
		c-5.6,11.9-19.6,14.1-28.8,4.7c-0.3-0.3-0.5-0.9-1.4-0.7c-0.6,0.5-0.2,1.4-0.4,2.2c-0.8,2.7-2.5,4.3-5.4,4.2
		c-2.8-0.1-4.2-1.9-4.8-4.4c-0.2-0.7-0.2-1.5-0.2-2.2c0-16.5,0-33,0-49.5c0-1,0.1-2,0.4-3c0.7-2.8,2.4-4.3,5.4-4.1
		c3,0.2,4.6,2.1,4.7,4.9c0.2,4.6,0.1,9.2,0.2,13.9C286.3,67.7,285.9,69.1,286.7,70.6z M308.1,88.4c0.1-2.7-0.1-5.5-1-8.1
		c-1.4-4.3-4.6-7-8.5-7.3c-4.2-0.3-7.9,1.8-9.8,6c-2.6,5.5-2.6,11.1-0.4,16.6c1.6,3.9,4.7,6,8.9,6.2c4.2,0.2,7-2.1,9-5.5
		C307.7,93.9,308,91.2,308.1,88.4z"/>
	<path fill="#FBFBFC" d="M402.8,90.5c-3.2,0-6.5,0.2-9.7-0.1c-2.9-0.2-3,1.1-2.5,3.3c1.8,8.6,10.2,12.1,17.5,7.4
		c1.9-1.2,3.5-2.8,5.2-4.3c1.8-1.7,3.9-2.6,6-0.9c2.1,1.7,1.5,4.1,0.3,6.1c-3.5,5.9-9.3,8.2-15.7,8.6c-9.1,0.6-17.4-1.5-22-10.3
		c-4.9-9.4-4.6-19.1,1.4-28c4.8-7.1,15.5-9.9,24.7-7c7.6,2.4,13,9.3,13.3,17.2c0.2,5.3-1.1,6.9-6.4,7.7c-0.5,0.1-1,0.2-1.5,0.2
		C409.8,90.5,406.3,90.5,402.8,90.5C402.8,90.5,402.8,90.5,402.8,90.5z M400,83.9c2.9,0,5.7,0,8.6,0c1.4,0,1.9-0.3,1.6-1.9
		c-0.8-5.5-4.1-9.1-8.9-9.4c-5.5-0.4-9,2.5-10.6,8.4c-0.6,2.1-0.5,3.3,2.2,3C395.3,83.7,397.6,83.9,400,83.9z"/>
	<path fill="#FBFBFC" d="M365.8,110.8c-8.6,0-11.9-2.6-12.5-11.2c-0.5-7.6-0.3-15.2-0.2-22.8c0-1.9-0.2-3-2.5-3.2
		c-2.4-0.2-3.9-1.5-3.8-4.2c0.1-2.5,1.7-3.7,3.8-3.8c2.3-0.1,2.5-1.3,2.4-3.2c-0.1-2.7-0.1-5.5,0.2-8.2c0.3-3.3,2.3-5.4,5.7-5.2
		c3.4,0.2,5,2.4,5.2,5.7c0.1,1.2,0,2.5,0,3.7c0,2-0.6,4.2,0.2,5.9c0.9,2.1,3.5,0.5,5.4,1.1c2.2,0.7,3.5,1.7,3.5,4.1
		c0,2.4-1.6,3.2-3.5,3.6c-0.9,0.2-1.7,0.3-2.6,0.2c-2.3,0-2.8,1.1-2.8,3.2c0.2,6.5,0,13,0.1,19.5c0,5,1.6,6.3,6.5,5.3
		c2.6-0.6,4.9-0.5,5.8,2.3c1,3-0.9,4.7-3.5,5.7C370.7,110.5,368.3,110.8,365.8,110.8z"/>
	<path fill="#FBFBFC" d="M250.2,70.6c5.5-6.7,10.7-7.8,16.8-4c2.5,1.6,3.4,3.8,2.5,6.4c-1,2.8-3.5,3.5-6.2,2.4
		c-9-3.4-11.5,1.8-12.4,8.7c-0.7,5.4-0.8,10.9-0.7,16.4c0,1.2,0,2.5,0,3.7c-0.1,4.1-2.3,6.6-5.6,6.6c-3.3,0-5.5-2.5-5.5-6.7
		c-0.1-9.7,0-19.5,0-29.2c0-2.2-0.2-4.5,0.5-6.7c0.7-2.4,2.3-3.7,4.9-3.8c2.4-0.1,4,1.1,4.8,3.4C249.6,68.6,249.9,69.5,250.2,70.6z"
		/>
	<path fill="#FBFBFC" d="M441.5,70.6c6-6.5,9.9-7.6,15.7-4.7c2.7,1.4,5,3.2,3.8,6.7c-1.3,3.5-3.9,3.4-7.1,2.5
		c-6.8-2-9.7-0.1-11.2,6.8c-1.3,6.1-0.6,12.2-0.8,18.3c-0.1,1.9-0.1,3.8-0.4,5.6c-0.5,3.1-2.3,5.1-5.6,4.9c-3.4-0.2-5-2.4-5.3-5.7
		c-0.1-1.2-0.1-2.5-0.1-3.7c0-9.1,0-18.2,0-27.4c0-0.9,0-1.8,0-2.6c0.2-4.3,1.8-6.6,4.9-6.9C438.9,64.2,440.5,65.8,441.5,70.6z"/>
	<path fill="#FBFBFC" d="M339.5,87.7c0,5.5,0,11,0,16.5c0,4.1-2.2,6.6-5.5,6.7c-3.3,0.1-5.5-2.4-5.6-6.6c-0.1-11.1-0.1-22.2,0-33.3
		c0-4.3,2.3-6.5,5.7-6.4c3.4,0.1,5.3,2.5,5.4,6.7C339.5,76.7,339.5,82.2,339.5,87.7z"/>
	<path fill="#FBFBFC" d="M339.5,53.6c0,3.4-2.1,5.6-5.5,5.6c-3.3,0-5.6-2.4-5.5-5.6c0.1-3.1,2.8-5.6,5.8-5.5
		C337.3,48.1,339.5,50.4,339.5,53.6z"/>
	<path fill="#B32D2D" d="M92.5,38.1c6.1,4.3,8.9,10.4,9.5,17.5c0.8,8.4,1.2,16.9,1.6,25.4c0.2,4.3-0.7,5.1-5,5
		c-12.4-0.4-24.7-0.9-37.1-0.4c-2,0.1-4,0.4-6,0.4c-2.9,0.1-4.4-1.4-4.2-4.4c0.6-8.7,1.3-17.4,1.9-26.1c0.5-7.7,4.1-13.7,10.3-18.2
		c1.1,1.4,0.4,4.9,2,4.4c1.9-0.7,0.2-3.4-0.1-5.3c0-0.1,0-0.2,0-0.4c8.5-3.8,16.9-4.6,25.1,0.7c0,0.1-0.1,0.2-0.1,0.4
		c0,1.6-1.8,4,0.1,4.5C92.7,42.2,91.1,38.9,92.5,38.1z M77.8,44.7c-8.1,0-14.3,6.2-14.4,14.1c0,8,6.4,14.4,14.4,14.5
		c7.5,0.1,14.1-6.4,14.2-14C92.1,51,86,44.8,77.8,44.7z"/>
	<path fill="#FBFBFC" d="M92.5,38.1c-1.5,0.8,0.1,4.1-1.9,3.5c-1.9-0.5-0.1-2.9-0.1-4.5c0-0.1,0.1-0.2,0.1-0.4
		c2.9-4.9,6.8-8.2,12.7-8.7c1-0.1,1.9-0.3,2.6-1.1c1-1.1,2.2-1.1,3.3-0.2c0.9,0.7,1,1.8,0.5,2.7c-0.7,1.4-1.9,1.3-3.2,1
		C100.3,28.9,94.8,31.9,92.5,38.1z"/>
	<path fill="#FBFBFC" d="M65.6,36c0,0.1,0,0.2,0,0.4c0.3,1.8,2,4.6,0.1,5.3c-1.6,0.5-0.9-3-2-4.4c-1.7-4.5-5.1-6.9-9.6-7.8
		c-1.2-0.2-2.3-0.5-3.4,0.5c-1.2,1.1-2.6,1-3.6-0.3c-0.6-0.8-0.6-1.9,0.1-2.8c1.1-1.2,2.3-1.1,3.6-0.1c0.5,0.4,1.1,0.7,1.6,0.7
		C58.6,27.7,62.5,31.2,65.6,36z"/>
	<path fill="#FBFBFC" d="M69.5,58.1c2.7,1.5,5.4,2.2,7.9,0c2.1-1.9,2.2-4.3,1.1-6.8c4.6-0.1,8,3.3,8,7.8c0,4.8-4.1,8.6-9.1,8.4
		C72.4,67.2,69.1,63.5,69.5,58.1z"/>
</g>
</svg>
