<?xml version="1.0" encoding="utf-8"?>
<svg version="1.1" id="1" xmlns="http://www.w3.org/2000/svg" xmlns:xlink="http://www.w3.org/1999/xlink" x="0px" y="0px"
	 viewBox="0 0 450 147.2" enable-background="new 0 0 450 147.2" xml:space="preserve">
<g>
	<path fill="#0C0D0D" d="M80.1,132.9c0,3.2,0.1,6.5,0,9.7c-0.1,2.5-0.9,4.5-3.9,4.5c-3,0-4.2-1.8-4.2-4.6c0-6.2-0.1-12.5,0-18.7
		c0-2.1-0.3-3.1-2.8-3.1c-9.2-0.1-18.5-0.3-27.7-0.6c-2.3-0.1-3.6,0.6-4.7,2.7c-3,5.5-6.1,10.9-9.3,16.2c-1.7,2.9-4.5,3.4-7.3,1.4
		c-2.7-1.9-1.6-4-0.2-6.1c2.8-4.1,5.5-8.3,8.3-12.4c1.5-2.1,1.3-2.9-1.5-3c-7.5-0.3-14.9-1-22.2-3.1c-5.4-1.6-5.9-3-2.9-7.6
		c3.5-5.3,8.5-9.2,13.6-12.6c2.3-1.5,2.7-2.9,1.9-5.5C13,74.1,12,58,17.5,42.4c8.1-22.6,24.1-36.5,48-40.5
		c16.2-2.7,31.5,0.3,45.2,9.3c10.9,7.2,18.3,17.3,22.9,29.8c5.9,16.4,5.1,32.6,0.3,48.9c-1.1,3.8,0.5,5.3,3.2,7
		c5.2,3.3,10,7.1,13.2,12.4c2.2,3.7,1.8,4.4-2.3,5.8c-7.5,2.5-15.4,3.1-23.2,4c-3.9,0.5-3.9,0.5-1.6,3.8c2.6,3.8,5.3,7.6,7.8,11.4
		c1.3,2,2.6,4.4-0.2,6.2c-2.7,1.7-4.9,0.9-6.5-1.9c-3.2-5.4-6.5-10.6-9.8-15.9c-0.8-1.3-1.5-2.3-3.4-2.3c-9.2,0.2-18.5,0.4-27.7,0.3
		c-2.7,0-3.9,0.4-3.6,3.4C80.3,127.1,80.1,130,80.1,132.9z M72,6.3c-16.4,0.4-32.3,8.8-43,26.4c-11,18.2-10.3,37.4-5.2,57.1
		c0.5,1.9,1.6,1.5,2.8,1.3c3.9-0.6,7.9-1.3,11.8-1.7c16.4-1.6,32.9-0.7,49.3-0.9c12.3-0.2,24.6,0.5,36.7,2.5
		c1.9,0.3,2.9-0.1,3.4-2.1c2.7-10.4,4.5-20.9,3.3-31.8C128.1,29.4,106.8,6.4,72,6.3z M109.7,104.4c-0.2,3.8,2.8,7.1,6.5,7.3
		c3.7,0.3,7.1-2.8,7.4-6.4c0.3-3.8-2.9-7.4-6.8-7.4C112,97.9,109.6,100.5,109.7,104.4z M82.5,104.6c0-4-2.7-6.9-6.6-7
		c-4-0.1-7,2.6-7,6.6c-0.1,4.2,2.8,7.3,6.8,7.3C79.5,111.5,82.5,108.5,82.5,104.6z M41.6,103.9c-0.1-3.9-3.1-6.6-7.1-6.4
		c-3.8,0.1-6.6,3-6.5,6.7c0.1,3.8,3.2,6.9,7,6.8C38.8,110.9,41.7,107.8,41.6,103.9z"/>
	<path fill="#0C0D0D" d="M166.3,76.9c0.5-8.5,1.9-16.8,8.9-23.1c7.3-6.6,15.9-8,25.1-6.7c19.8,2.7,24.9,20.2,23.4,34.8
		c-0.5,4.8-1.6,9.3-4,13.5c-6.7,12.3-22.2,15.1-34.7,11.5c-12.7-3.6-17.4-14.3-18.4-25.2C166.5,80.2,166.4,78.7,166.3,76.9z
		 M195.3,56.4c-6.8,0-12,3.3-14.6,9.6c-2.9,7.3-3,14.8-0.2,22.2c2.6,6.8,7.6,10.3,14.4,10.3c7.3,0,12.2-3.2,14.9-10.2
		c2.9-7.4,2.8-14.9-0.1-22.2C207.2,59.8,202.2,56.5,195.3,56.4z"/>
	<path fill="#0C0D0D" d="M279.6,101.7c-0.3,1.3-0.5,2.3-0.8,3.2c-0.9,2.4-2.6,3.5-5.2,3.4c-2.7-0.2-4-1.8-4.5-4.2
		c-0.1-0.5-0.1-1-0.1-1.5c0-16.7,0-33.4,0-50.2c0-4,2-5.9,5.3-5.7c3.8,0.2,4.8,2.8,4.9,5.9c0.2,4.5,0,9,0.1,13.5c0,0.9-0.3,2,0.5,3
		c2.9-2.1,5.5-4.5,9.2-5.3c9.2-2.1,17.4,2,20.7,10.8c2.9,7.7,2.6,15.4-0.4,22.9C304.9,108.7,289.6,113.1,279.6,101.7z M300.6,84.9
		c0.2-1.6-0.4-4-1.2-6.4c-1.4-4-4-6.6-8.3-7c-3.9-0.4-7.7,2-9.5,6c-2.4,5.2-2.5,10.6-0.4,16c1.5,3.8,4.6,5.9,8.6,6.3
		c3.7,0.3,6.4-1.6,8.4-4.6C300.1,92.3,300.5,89.1,300.6,84.9z"/>
	<path fill="#0C0D0D" d="M369.4,85.8c-0.1-18,16.2-28.5,31.6-20.3c6.6,3.5,9.8,9.3,9.8,16.8c0,3.4-1.5,5.2-5,5.8
		c-7.3,1.2-14.7,0.5-22,0.5c-3.3,0-3.5,1.3-2.8,3.8c1.2,4.1,3.4,7.3,7.7,8.3c5.1,1.1,9.4-0.8,12.7-4.6c0.9-1.1,1.8-1.9,3-2.4
		c1.7-0.7,3.4-0.9,4.8,0.6c1.4,1.5,1,3.2,0.2,4.9c-2.7,5.6-7.8,8.2-13.5,8.9C378.5,110.4,369.3,100.2,369.4,85.8z M390.2,82.1
		c2.7,0,5.5-0.1,8.2,0c1.5,0.1,1.9-0.4,1.7-1.9c-0.7-5.4-4.5-9.2-9.5-9.3c-4.9-0.1-8.9,3.7-9.8,9c-0.3,1.6,0,2.3,1.8,2.2
		C385.2,82,387.7,82.1,390.2,82.1z"/>
	<path fill="#0C0D0D" d="M344.1,84.4c0-2.4,0-4.7,0-7.1c0-2.6,0.9-5.5-3.5-5.6c-1.7,0-2.6-1.7-2.5-3.6c0-2.1,1.3-3.5,3.1-3.6
		c2.9-0.2,3.1-1.8,3-4.1c-0.1-2.7-0.2-5.5,0.5-8.2c0.6-2.5,2.2-3.8,4.8-3.9c2.7-0.1,4.5,1.2,5.3,3.8c1,3.2,0.5,6.5,0.5,9.7
		c0,2,0.6,2.7,2.5,2.4c1-0.1,2,0,3,0.2c2,0.5,3.3,1.8,3.3,4c0,2.1-1.4,2.9-3.2,3.5c-1.8,0.6-4.5-0.5-5.2,1c-0.8,1.9-0.3,4.4-0.3,6.6
		c0,5.2,0,10.5,0.1,15.7c0.1,3.8,1.5,4.8,5.2,4.3c0.9-0.1,1.7-0.2,2.6-0.3c2-0.3,3.5,0.4,4.1,2.3c0.5,1.8,0.2,3.6-1.5,4.6
		c-4.9,2.9-10.3,2.8-15.5,1.2c-4.5-1.4-5.6-5.4-5.7-9.6c-0.2-4.5,0-9,0-13.5C344.4,84.4,344.3,84.4,344.1,84.4z"/>
	<path fill="#0C0D0D" d="M430.6,69.4c5.9-6.6,10.8-7.7,16.5-4.2c2.5,1.5,3.5,3.7,2.5,6.3c-1.1,2.8-3.3,3.1-6.1,2.4
		c-7.8-2.1-10.3-0.4-11.8,7.6c-1.2,6.3-0.5,12.7-0.7,19c0,1.6,0,3.2-0.7,4.8c-1,2.1-2.6,3.2-5,3.2c-2.4-0.1-4-1.2-4.7-3.5
		c-0.4-1.3-0.7-2.7-0.7-4c-0.1-9.8,0-19.7,0-29.5c0-0.6,0.1-1.2,0.2-1.9c0.5-3.1,1.1-6,5.1-6.1C429.2,63.1,430.2,65.8,430.6,69.4z"
		/>
	<path fill="#0C0D0D" d="M243.9,69.1c5.9-6.3,9.7-7.3,15.5-4.4c2.8,1.4,4.6,3.4,3.5,6.5c-1.1,3.2-3.8,3.4-6.8,2.5
		c-7-2-9.6-0.3-11.1,6.8c-1.3,6.3-0.5,12.7-0.7,19c-0.1,1.8-0.1,3.5-0.6,5.2c-0.7,2.3-2.3,3.5-4.6,3.7c-2.6,0.2-4.3-1-5.2-3.3
		c-0.5-1.2-0.6-2.4-0.6-3.6c0-10.2,0-20.5,0-30.7c0-5.1,2.1-7.6,5.8-7.4C242.8,63.4,243.1,66.4,243.9,69.1z"/>
	<path fill="#0C0D0D" d="M331.3,85.9c0,5,0,10,0,14.9c0,1.2-0.1,2.4-0.5,3.7c-0.9,2.6-2.6,3.9-5.3,3.8c-2.6,0-4.5-1.4-4.7-3.9
		c-1.1-12.4-1.1-24.8,0-37.2c0.3-3.1,2.8-4.3,5.8-3.9c3.2,0.4,4.6,2.8,4.7,5.8C331.3,74.7,331.3,80.3,331.3,85.9z"/>
	<path fill="#0C0D0D" d="M331.3,52.4c0.1,3-2.2,5.5-5.2,5.6c-3.2,0.1-5.9-2.2-5.9-5.4c0-2.7,2.4-5.3,5.2-5.4
		C328.7,47.1,331.2,49.2,331.3,52.4z"/>
	<path fill="#EEF4F2" d="M109.7,104.4c-0.1-3.9,2.3-6.5,7.1-6.5c3.9,0,7,3.6,6.8,7.4c-0.2,3.7-3.7,6.7-7.4,6.4
		C112.5,111.5,109.5,108.2,109.7,104.4z"/>
	<path fill="#EEF4F2" d="M82.5,104.6c0,3.9-3,6.9-6.9,6.9c-4-0.1-6.9-3.2-6.8-7.3c0.1-3.9,3-6.7,7-6.6
		C79.8,97.7,82.5,100.6,82.5,104.6z"/>
	<path fill="#EEF4F2" d="M41.6,103.9c0.1,3.8-2.8,6.9-6.6,7.1c-3.7,0.1-6.9-2.9-7-6.8c-0.1-3.7,2.7-6.6,6.5-6.7
		C38.6,97.4,41.5,100,41.6,103.9z"/>
	<path fill="#BA3230" d="M63.8,35.6c8.3-4.5,16.4-4.2,24.6,0.4c-0.1,1.7-1.6,3.3,0,5c1.7-0.9,0.9-2.7,1.6-3.9
		c6.2,4.8,9.2,11.1,9.6,18.9c0.4,7.8,1,15.7,1.7,23.5c0.3,3.4-1,4.9-4.4,4.7c-14.1-0.7-28.2-0.9-42.3-0.2c-3.1,0.2-4.7-1.1-4.4-4.4
		c0.7-8.7,1.2-17.4,2-26.1c0.7-7.1,4-12.7,10-16.8c1.3,1.1,0.2,3.2,1.8,4.5C65.5,39.3,63.9,37.5,63.8,35.6z M75.8,71.7
		c7.7-0.1,13.9-6.1,13.9-13.7c0.1-7.9-6.3-14.7-14.1-14.2c-9.8,0.7-13.9,5.3-14.1,15.7C61.4,65.5,69,71.7,75.8,71.7z"/>
	<path fill="#0C0D0D" d="M90.1,37.2c-0.8,1.2,0.1,3-1.6,3.9c-1.6-1.7-0.1-3.4,0-5c3.1-4.6,6.6-8.6,12.8-8.2c1.2,0.1,1.7-0.8,2.5-1.4
		c0.9-0.7,1.8-0.7,2.7,0c0.9,0.7,1,1.7,0.5,2.7c-0.5,1-1.5,1.3-2.5,1.1C97,28.9,93.1,30.8,90.1,37.2z"/>
	<path fill="#0C0D0D" d="M63.8,35.6c0.1,1.8,1.6,3.6,0.2,5.7c-1.6-1.3-0.5-3.4-1.8-4.5c-1.5-4.6-5-6.9-9.5-7.9
		c-1.6-0.4-2.8,0-4.1,1.1c-0.9,0.7-2,0.2-2.6-0.6c-0.6-0.7-0.6-1.6-0.1-2.4c0.5-0.8,1.5-1.4,2.2-1c2.7,1.9,6.2,1.3,9.1,2.9
		C60.1,30.4,62.1,32.9,63.8,35.6z"/>
	<path fill="#EEF4F2" d="M75.8,71.7c-6.8,0-14.4-6.2-14.3-12.1c0.2-10.4,4.3-15.1,14.1-15.7c7.8-0.5,14.2,6.3,14.1,14.2
		C89.7,65.5,83.5,71.6,75.8,71.7z M67.6,56.9c-0.1,5.3,2.9,8.8,7.8,9.2c4,0.3,8-2.8,8.7-6.7c0.8-4.8-1.7-8.1-7.4-9.4
		c0.9,2.8,1,5.4-1.5,7.4C72.5,59.2,70,58.5,67.6,56.9z"/>
	<path fill="#0C0D0D" d="M67.6,56.9c2.4,1.6,5,2.4,7.5,0.5c2.6-1.9,2.4-4.6,1.5-7.4c5.6,1.3,8.2,4.6,7.4,9.4c-0.6,3.9-4.7,7-8.7,6.7
		C70.4,65.6,67.4,62.1,67.6,56.9z"/>
</g>
</svg>
