<?xml version="1.0" encoding="utf-8"?>
<svg version="1.1" id="Layer_1" xmlns="http://www.w3.org/2000/svg" xmlns:xlink="http://www.w3.org/1999/xlink" x="0px" y="0px"
	 viewBox="0 373 86.8 95.9" enable-background="new 0 373 86.8 95.9" xml:space="preserve">
<path fill="#7B35E2" d="M79.9,391.9l-29.5-17.1c-2.1-1.2-4.5-1.9-6.9-1.9s-4.8,0.6-6.9,1.9L6.9,391.9c-2.1,1.2-3.9,3-5.1,5.1
	c-1.2,2.1-1.9,4.5-1.9,6.9v34.2c0,2.4,0.7,4.8,1.9,6.9c1.2,2.1,3,3.8,5.1,5.1L36.5,467c2.1,1.2,4.5,1.9,6.9,1.9
	c2.4,0,4.8-0.6,6.9-1.9L79.8,450c2.1-1.2,3.9-3,5.1-5.1c1.2-2.1,1.9-4.5,1.9-6.9v-34.2c0-2.4-0.7-4.8-1.9-6.9
	C83.8,394.8,82,393.1,79.9,391.9z M6.9,403.9c0-1.2,0.3-2.4,0.9-3.5s1.5-1.9,2.6-2.6l29.5-17.1c1.1-0.6,2.2-1,3.5-1
	c1.2,0,2.4,0.3,3.5,1l29.5,17.1c1.1,0.6,1.9,1.4,2.5,2.5c0.6,1,1,2.2,1,3.4v3.5c0,2.7-1.1,5.3-3,7.2s-4.5,3-7.2,3H17.2
	c-3.7,0-7.2,1.2-10.2,3.4V403.9z M79.9,437.9c0,1.2-0.3,2.4-0.9,3.5s-1.5,1.9-2.6,2.6L47,461c-1.1,0.6-2.2,0.9-3.5,0.9
	s-2.4-0.3-3.5-0.9L10.5,444c-1.1-0.6-1.9-1.4-2.5-2.5c-0.6-1-1-2.2-1-3.4v-3.5c0-2.7,1.1-5.3,3-7.2s4.5-3,7.2-3h52.5
	c3.7,0,7.2-1.2,10.2-3.4L79.9,437.9L79.9,437.9z"/>
<path fill="#7B35E2" d="M27.3,402.2H34v10.1h6.9v-10.1c0-1.9-0.7-3.6-2-4.9c-1.3-1.3-3.1-2-4.9-2h-6.7c-1.9,0-3.6,0.7-4.9,2
	c-1.3,1.3-2,3.1-2,4.9v10.1h6.9V402.2z"/>
<path fill="#7B35E2" d="M34,439.7h-6.7v-10.1h-6.9v10.1c0,1.9,0.7,3.6,2,4.9c1.3,1.3,3.1,2,4.9,2H34c1.9,0,3.6-0.7,4.9-2
	c1.3-1.3,2-3.1,2-4.9v-10.1H34C34,429.6,34,439.7,34,439.7z"/>
<path fill="#7B35E2" d="M54.7,402.2h6.8v10.1h6.9v-10.1c0-1.9-0.7-3.6-2-4.9c-1.3-1.3-3.1-2-4.9-2h-6.8c-1.9,0-3.6,0.7-4.9,2
	c-1.3,1.3-2,3.1-2,4.9v10.1h6.9C54.7,412.3,54.7,402.2,54.7,402.2z"/>
<path fill="#7B35E2" d="M61.4,439.7h-6.8v-10.1h-6.9v10.1c0,1.9,0.7,3.6,2,4.9c1.3,1.3,3.1,2,4.9,2h6.8c1.9,0,3.6-0.7,4.9-2
	s2-3.1,2-4.9v-10.1h-6.9V439.7z"/>
</svg>