<?xml version="1.0" encoding="utf-8"?>
<svg version="1.1" id="Layer_1" xmlns="http://www.w3.org/2000/svg" xmlns:xlink="http://www.w3.org/1999/xlink" x="0px" y="0px"
	 viewBox="0 0 66 66" enable-background="new 0 0 66 66" xml:space="preserve">
<g>
	<path fill="#476DB4" d="M33.1,0c6.7,0,13.5,0,20.2,0C60.7,0.1,66,5.4,66,12.8c0,13.5,0,27,0,40.4C66,60.7,60.7,66,53.3,66
		c-13.5,0-27,0-40.4,0C5.2,66,0.1,60.7,0,53c0-13.6,0-27.2,0-40.8C0,5.6,5.4,0.1,12.1,0C19.1,0,26.1,0,33.1,0C33.1,0,33.1,0,33.1,0z
		 M31.6,16.5C31.6,16.5,31.6,16.5,31.6,16.5c-5.2,0-10.5,0-15.7,0c-0.8,0-1.9-0.4-2.3,0.7c-0.5,1.3,0.8,1.7,1.6,2.2
		c7,4.2,14,8.4,21,12.7c1.8,1.1,2.9,0.7,4.1-0.8c2.7-3.6,5.4-7.2,8.1-10.7c0.7-0.9,1.4-1.9,1-3c-0.5-1.5-1.9-0.9-2.9-0.9
		C41.5,16.5,36.6,16.5,31.6,16.5z M34.3,49.5c5.2,0,10.5,0,15.7,0c0.8,0,1.9,0.4,2.3-0.7c0.5-1.4-0.8-1.7-1.6-2.1
		c-6.9-4.2-13.9-8.3-20.8-12.6c-1.9-1.2-3.1-0.8-4.4,0.9c-2.6,3.6-5.4,7.2-8.1,10.8c-0.6,0.9-1.7,1.7-0.9,3c0.6,1.1,1.8,0.7,2.7,0.8
		C24.3,49.5,29.3,49.5,34.3,49.5z"/>
	<path fill="#FDFEFF" d="M31.6,16.5c5,0,10,0,14.9,0c1,0,2.4-0.6,2.9,0.9c0.4,1.2-0.3,2.1-1,3c-2.8,3.5-5.5,7.1-8.1,10.7
		c-1.2,1.6-2.3,2-4.1,0.8c-7-4.3-14-8.5-21-12.7c-0.8-0.5-2-0.9-1.6-2.2c0.4-1.1,1.5-0.7,2.3-0.7C21.1,16.5,26.3,16.5,31.6,16.5
		C31.6,16.5,31.6,16.5,31.6,16.5z"/>
	<path fill="#FDFEFF" d="M34.3,49.5c-5,0-10,0-15,0c-1,0-2.1,0.3-2.7-0.8c-0.7-1.3,0.3-2.1,0.9-3c2.7-3.6,5.4-7.1,8.1-10.8
		c1.3-1.7,2.4-2.1,4.4-0.9c6.9,4.3,13.8,8.4,20.8,12.6c0.8,0.5,2.1,0.8,1.6,2.1c-0.4,1-1.5,0.7-2.3,0.7
		C44.8,49.5,39.5,49.5,34.3,49.5z"/>
</g>
</svg>
