<?xml version="1.0" encoding="utf-8"?>
<!-- Generator: Adobe Illustrator 18.1.1, SVG Export Plug-In . SVG Version: 6.00 Build 0)  -->
<svg version="1.1" id="Layer_1" xmlns="http://www.w3.org/2000/svg" xmlns:xlink="http://www.w3.org/1999/xlink" x="0px" y="0px"
	 viewBox="-13.4 98.5 651 648" enable-background="new -13.4 98.5 651 648" xml:space="preserve">
<g>
	<path fill="#010101" d="M14.6,420.3c0-54.6-1-109.2,0.3-163.8c1.3-53.3,23.7-95.2,72.9-119.8c21.6-10.7,45.2-13.9,68.9-13.9
		c104.1-0.3,208.1-0.3,312.3,0c30.3,0.1,59.5,5.6,85.2,23.4c33.5,23.1,51.2,55.8,55.3,96.1c1.1,11,1.5,22.2,1.5,33.3
		c0,100,0.1,199.8-0.1,299.7c0,31.1-5.3,60.9-23.6,87.1c-24.1,34.7-58.3,51.9-99.7,55.6c-11.6,1.1-23.1,1.1-34.7,1.1
		c-98.3,0-196.6,0.1-294.9-0.1c-29-0.1-57.3-4.6-82.5-20.6c-33-21.1-52.3-51.2-58.6-89.6c-2.2-13.5-2.9-27.2-2.8-40.8
		c0.1-49.2,0-98.6,0-147.8C14.4,420.3,14.4,420.3,14.6,420.3z M312.6,482.4c16.5,0,32.9,0,49.5,0c9.8,0,12-2.1,12-11.7
		c0-33.2,0-66.4,0-99.5c0-9.3-2.2-11.6-11.3-11.6c-33.5,0-66.8,0-100.2,0c-8.8,0-11.3,2.4-11.3,11c0,33.6,0,67.3,0,100.9
		c0,8.5,2.5,10.9,11.3,10.9C279.3,482.4,295.9,482.4,312.6,482.4z M128.3,297.9c0,16.9,0,33.9,0,50.7c0,7.9,2.6,10.7,10.2,10.7
		c34.2,0,68.2,0,102.3,0c7.5,0,10.5-2.9,10.5-10.6c0-33.9,0-67.8,0-101.6c0-7.9-2.6-10.6-10.3-10.6c-34.2,0-68.2,0-102.3,0
		c-7.9,0-10.3,2.5-10.3,10.5C128.2,264,128.3,281,128.3,297.9z M435.6,236.6c-16.9,0-33.9,0-50.7,0c-8.2,0-10.7,2.6-10.7,10.9
		c0,33.6,0,67.3,0,100.9c0,8.2,2.8,11,10.7,11c33.9,0,67.8,0,101.6,0c7.8,0,10.6-2.6,10.6-10.3c0-34.2,0-68.2,0-102.3
		c0-7.9-2.4-10.2-10.6-10.2C469.5,236.6,452.6,236.6,435.6,236.6z M128.3,543.8c0,17.1,0,34.3,0,51.4c0,7.2,2.5,9.9,9.3,9.9
		c34.6,0.1,69.1,0.1,103.7,0c6.8,0,9.8-2.8,9.8-9.8c0.1-34.3,0.1-68.7,0-103c0-7.1-2.9-10-10.2-10c-34.2,0-68.2,0-102.3,0
		c-7.7,0-10.3,2.6-10.3,10.6C128.2,510,128.3,526.8,128.3,543.8z M436,605.3c16.5,0,32.9,0,49.5,0c9.5,0,11.6-2.1,11.6-11.3
		c0-33.5,0-66.8,0-100.2c0-9.1-2.4-11.3-11.7-11.4c-33.2,0-66.4,0-99.5,0c-9.1,0-11.7,2.5-11.7,11.4c0,33.5,0,66.8,0,100.2
		c0,8.8,2.4,11.2,11,11.3C402.1,605.3,419,605.3,436,605.3z"/>
</g>
</svg>
