<?xml version="1.0" encoding="utf-8"?>
<!-- Generator: Adobe Illustrator 18.1.1, SVG Export Plug-In . SVG Version: 6.00 Build 0)  -->
<svg version="1.1" id="Layer_1" xmlns="http://www.w3.org/2000/svg" xmlns:xlink="http://www.w3.org/1999/xlink" x="0px" y="0px"
	 viewBox="0 0 374.9 375" enable-background="new 0 0 374.9 375" xml:space="preserve">
<g>
	<path fill="#E9EBFE" d="M187.6,0c102.7,0,189.6,83.8,187.3,192.1c-2,98.1-82.9,186.1-194.3,182.8C84.4,372-3.3,292.3,0.1,180.6
		C3,83.2,82.7,0.4,187.6,0z"/>
	<path fill="#8B8CFB" d="M141.6,114.4c-1.4-3.3-4.3-5.5-6.6-8c-5-5.4-10.2-10.6-15.5-15.8c-2.4-2.3-2.3-4,0.1-6.1
		c3.2-2.8,6.2-5.8,9.1-8.9c1.9-2.1,3.1-2.1,5.1-0.1c7.1,7.4,14.4,14.6,21.5,22c1.9,2,3.3,2.2,5.7,0.9c21.4-10.8,42.5-10.2,62.8,2.8
		c14.4,9.3,23.3,22.5,26.7,39.4c0.7,3.6,1.3,7.1,1.4,10.7c0,2.4-1,3.4-3.4,3.3c-4.6-0.1-9.2-0.1-13.9-0.1c-2.2,0-3-0.9-3.2-3.1
		c-0.7-7.1-2.4-14.1-6.4-20.1c-6.5-9.7-15.5-15.8-26.9-18.9c-7.6-2.1-14.8-1.2-22,1c-3.6,1.1-3.7,1.8-1.2,4.3
		c18.9,19.4,37.8,38.8,56.7,58.3c13.3,13.7,20.4,29.9,19.4,49.2c-0.6,11.9-5,22.5-11.8,32.1c-2.1,2.9-2.5,4.7,0.3,7.4
		c6.6,6.3,12.8,13,19.3,19.4c2.5,2.4,2.6,4.1-0.1,6.4c-3.1,2.7-6.1,5.6-8.8,8.7c-2.2,2.5-3.5,2-5.6-0.1c-6.9-7.2-14-14.3-21-21.4
		c-1-1.1-2-2.3-3.6-2.5c-2.4-3.1-5.3-5.8-7.8-8.9c-2.1-2.7-4.6-4.7-8-5.4c2.5-1.5,0.7-2.5-0.4-3.6c-11.6-11.9-23.2-23.7-34.8-35.6
		c-9.1-9.4-18.6-18.5-27-28.5c-11.4-13.5-16.2-29.4-13.9-47.2c0.7-5.1,1.3-10.1,3.9-14.6c4.9,3.1,8.5,7.6,12.6,11.6
		c1.3,1.3,2.7,2.5,4.3,3.5c1.3,3.8-0.2,7.6,0.4,11.5c1.2,6.9,3.1,13.3,7.4,19c2.3,3.1,4.8,6.1,7.5,8.8
		c11.6,11.4,22.5,23.4,34.1,34.8c7,7,13.3,14.5,20.5,21.3c3.6,3.4,3.8,3.4,6.4-1c7.4-12.5,5.6-34-5.5-45.9
		c-5-5.4-10.1-10.7-15.3-15.9c-12.5-12.6-24.6-25.6-37.2-38.1c-3.8-3.8-7.2-8-11.2-11.6c-0.7-2.4-2.8-3.8-4.4-5.4
		C148.3,120.8,145.2,117.3,141.6,114.4z"/>
	<path fill="#8B8CFB" d="M198.7,282.8c-4.7,2.2-9.8,1.8-14.7,1.2c-23.1-2.7-40.6-13.9-51.2-35.1c-3.9-7.8-6-16-6.2-24.8
		c-0.1-2.7,0.8-3.9,3.7-3.8c4.4,0.2,8.7,0.1,13.1,0.1c2.4,0,3.5,0.8,3.7,3.4c1.1,11.9,5.8,22,15.2,29.7c6.6,5.4,14.1,8.7,22.6,9.6
		c0.9,0.1,1.8-0.1,2.5,0.6c-0.3,0.8-1.2,0.8-1.7,1.1c3.7,4.7,7.8,8.8,11.9,12.9C199.1,279.3,199.6,280.9,198.7,282.8z"/>
	<path fill="#4E529A" d="M198.7,282.8c0.2-2.7-1.4-4.4-3.2-6.1c-4.1-3.8-7.7-8-11.6-12.5c1.4-0.2,2.5-0.3,3.6-0.4
		c5.7,0.2,11.3-0.6,16.6-2.9c2.5-0.8,4.3,0,6,2c2.9,3.4,6,6.5,9.1,9.7c0.7,0.8,1.3,1.4,0.7,2.5C213.2,279.1,206.3,282,198.7,282.8z"
		/>
	<path fill="#4E529A" d="M148.3,146.3c-0.9,0.7-1.5,0.1-2.2-0.5c-4.7-4.3-8.4-9.7-14-13c-0.3-0.2-0.2-0.9-0.2-1.4
		c2.3-6.2,5.5-11.9,9.7-16.9c0.9-0.2,1.6-0.2,2.3,0.5c3.9,4,7.8,8,11.7,11.9c0.7,0.7,0.7,1.2,0.2,2c0.1,1.2-0.5,2.2-1.1,3.1
		c-2.2,3.6-4,7.4-5,11.5C149.6,144.5,149.4,145.7,148.3,146.3z"/>
	<path fill="#E9EBFE" d="M148.3,146.3c1.3-6.4,3.4-12.4,7.7-17.4c3.5,1.6,5.8,4.7,8.2,7.5c6.5,7.3,13.6,14,20.3,21
		c11.8,12.2,23.5,24.5,35.4,36.7c11.8,12.2,14.4,34.8,5,49.2c-2.3,3.5-2.5,3.7-5.3,0.7c-19-19.5-38-39-56.9-58.6
		c-6.6-6.8-11.9-14.3-13.8-23.9C147.8,156.4,148.4,151.3,148.3,146.3z"/>
</g>
</svg>
