<?xml version="1.0" encoding="utf-8"?>
<!-- Generator: Adobe Illustrator 18.1.1, SVG Export Plug-In . SVG Version: 6.00 Build 0)  -->
<svg version="1.1" id="LAYER_1" xmlns="http://www.w3.org/2000/svg" xmlns:xlink="http://www.w3.org/1999/xlink" x="0px" y="0px"
	 viewBox="0 0 512 512" enable-background="new 0 0 512 512" xml:space="preserve">
<g>
	<linearGradient id="SVGID_1_" gradientUnits="userSpaceOnUse" x1="-7.8302" y1="99.1372" x2="432.4632" y2="360.9335">
		<stop  offset="0" style="stop-color:#4E529A"/>
		<stop  offset="1" style="stop-color:#11142B"/>
	</linearGradient>
	<path fill="url(#SVGID_1_)" d="M0,277c0-14,0-28,0-42c1.3-0.4,0.9-1.6,1-2.5c1.1-10.8,2.8-21.4,5-32C27.6,98.7,115.2,17,218.1,2.8
		C223.8,2,229.6,2.3,235,0c13.7,0,27.3,0,41,0c0.3,1,1.2,0.9,2,1c11.1,0.9,22.1,2.7,33,5c102,21.3,183.8,109,198.2,212.2
		c0.8,6,0.6,12.1,2.8,17.9c0,13.7,0,27.3,0,41c-1.3,0.4-0.9,1.6-1,2.5c-1.1,10.8-2.8,21.4-5,32c-21.5,101.9-109,183.3-212.1,197.7
		c-6,0.8-12.1,0.6-17.9,2.8c-13.7,0-27.3,0-41,0c-0.4-1.3-1.6-0.9-2.5-1c-10.6-1.1-21.1-2.7-31.5-4.9
		C98.9,484.7,17.2,397.2,2.8,293.9C2,288.2,2.3,282.4,0,277z M254.2,244c-22.3,0-44.7-0.2-67,0.1c-5.4,0.1-6.3-1.6-6.3-6.6
		c0.2-34.7,0.1-69.3,0.2-104c0-3.6-0.7-5-4.6-4.7c-5.1,0.4-10.3,0.4-15.5,0c-4.2-0.3-5.2,1-5.1,5.2c0.2,35,0,70,0.2,105
		c0,4.3-1.2,5.3-5.2,5.1c-7.5-0.3-15,0-22.5-0.1c-2.5,0-3.5,0.5-3.5,3.3c0.2,6.2,0.2,12.3,0,18.5c-0.1,2.6,0.7,3.4,3.3,3.4
		c7.8-0.2,15.7,0.1,23.5-0.2c3.6-0.1,4.4,1.1,4.3,4.5c-0.3,7.3,0,14.7-0.1,22c-0.1,2.7,0.5,3.8,3.5,3.7c6-0.2,12-0.2,18,0
		c2.8,0.1,3.7-0.7,3.6-3.6c-0.2-7.3,0.2-14.7-0.2-22c-0.2-3.9,1.1-4.6,4.7-4.6c45.5,0.1,91,0.2,136.5,0c4.4,0,5,1.3,5,5.3
		c-0.2,35.5,0,71-0.2,106.5c0,3.4,0.7,4.7,4.3,4.5c5.1-0.3,10.4-0.4,15.5,0c4.5,0.4,5.4-1.1,5.4-5.4c-0.2-35.3,0-70.6-0.2-106
		c0-4.1,1.2-5,5-4.8c6.8,0.3,13.7,0,20.5,0.1c2.7,0.1,3.8-0.5,3.7-3.5c-0.2-6-0.2-12,0-18c0.1-2.8-0.8-3.7-3.6-3.6
		c-7.2,0.2-14.3-0.1-21.5,0.1c-3.4,0.1-4.1-1.1-4-4.2c0.2-7.5,0-15,0.1-22.5c0-2.5-0.5-3.5-3.3-3.5c-6.2,0.2-12.3,0.2-18.5,0
		c-2.6-0.1-3.4,0.7-3.4,3.3c0.2,7.5-0.2,15,0.2,22.5c0.1,3.6-1.1,4.3-4.5,4.3C299.8,243.9,277,244,254.2,244z"/>
</g>
</svg>
